<svg width="99" height="36" viewBox="0 0 99 36" fill="none" xmlns="http://www.w3.org/2000/svg">
<path d="M0 4C0 1.79086 1.79086 0 4 0H95C97.2091 0 99 1.79086 99 4V32C99 34.2091 97.2091 36 95 36H4C1.79086 36 0 34.2091 0 32V4Z" fill="#1443BD"/>
<path d="M0 4C0 1.79086 1.79086 0 4 0H95C97.2091 0 99 1.79086 99 4V32C99 34.2091 97.2091 36 95 36H4C1.79086 36 0 34.2091 0 32V4Z" fill="url(#paint0_linear_505_422)" fill-opacity="0.2"/>
<path d="M28.2935 22.196C29.3435 22.196 30.1975 21.93 30.8555 21.398C31.5135 20.866 31.8495 20.152 31.8495 19.242C31.8495 18.682 31.6955 18.192 31.4855 17.856C31.3035 17.52 30.8555 17.17 30.5615 16.988C30.4215 16.89 30.2115 16.792 29.9455 16.694C29.6795 16.582 29.4695 16.498 29.3155 16.456L28.6435 16.232C27.9155 16.008 27.4255 15.798 27.1595 15.616C26.9075 15.42 26.7815 15.168 26.7815 14.86C26.7815 14.286 27.2715 13.88 28.0695 13.88C28.9235 13.88 29.5535 14.3 29.9455 15.14L31.5695 14.202C30.8975 12.816 29.6515 12.004 28.0695 12.004C27.1875 12.004 26.4175 12.27 25.7875 12.802C25.1575 13.32 24.8495 14.034 24.8495 14.916C24.8495 15.812 25.1715 16.484 25.7735 16.932C26.3895 17.366 26.9215 17.576 27.8035 17.842C28.6015 18.066 29.1475 18.276 29.4555 18.472C29.7635 18.654 29.9175 18.92 29.9175 19.27C29.9175 19.872 29.4275 20.306 28.3495 20.306C27.2295 20.306 26.4735 19.802 26.0955 18.808L24.4435 19.774C24.9895 21.272 26.3475 22.196 28.2935 22.196ZM34.0966 14.384C34.7126 14.384 35.2166 13.894 35.2166 13.306C35.2166 12.718 34.7126 12.214 34.0966 12.214C33.4946 12.214 32.9906 12.718 32.9906 13.306C32.9906 13.894 33.4946 14.384 34.0966 14.384ZM35.0066 22V15H33.2006V22H35.0066ZM42.1966 15.868C41.6646 15.154 40.9226 14.804 39.9566 14.804C38.9766 14.804 38.1506 15.154 37.4786 15.854C36.8066 16.554 36.4706 17.394 36.4706 18.388C36.4706 19.382 36.8066 20.236 37.4646 20.936C38.1366 21.622 38.9626 21.972 39.9566 21.972C40.9226 21.972 41.6646 21.622 42.1966 20.908V21.664C42.1966 22.77 41.4966 23.386 40.3626 23.386C39.4946 23.386 38.8786 23.064 38.5286 22.406L36.9886 23.288C37.6046 24.408 38.7946 24.996 40.3066 24.996C41.3146 24.996 42.1686 24.716 42.8826 24.142C43.5966 23.568 43.9606 22.742 43.9606 21.664V15H42.1966V15.868ZM42.1966 18.388C42.1966 19.508 41.3706 20.306 40.2366 20.306C39.1026 20.306 38.2766 19.508 38.2766 18.388C38.2766 17.842 38.4586 17.38 38.8226 17.03C39.2006 16.666 39.6626 16.484 40.2366 16.484C40.8106 16.484 41.2726 16.666 41.6366 17.03C42.0146 17.38 42.1966 17.842 42.1966 18.388ZM49.6653 14.804C48.7133 14.804 48.0133 15.126 47.5793 15.784V15H45.7733V22H47.5793V18.22C47.5793 17.058 48.1813 16.484 49.1193 16.484C49.9593 16.484 50.5053 16.988 50.5053 17.926V22H52.3113V17.702C52.3113 16.792 52.0593 16.092 51.5553 15.574C51.0653 15.056 50.4353 14.804 49.6653 14.804ZM61.4413 22.196C62.5473 22.196 63.4433 21.888 64.1433 21.272C64.8433 20.656 65.1933 19.83 65.1933 18.794V12.2H63.2613V18.64C63.2613 19.662 62.6873 20.306 61.4413 20.306C60.1953 20.306 59.6213 19.662 59.6213 18.64V12.2H57.7033V18.794C57.7033 19.83 58.0533 20.656 58.7533 21.272C59.4533 21.888 60.3493 22.196 61.4413 22.196ZM71.0988 14.804C70.1188 14.804 69.3628 15.14 68.8308 15.826V15H67.0248V24.8H68.8308V21.174C69.3628 21.86 70.1188 22.196 71.0988 22.196C72.0368 22.196 72.8488 21.846 73.5068 21.132C74.1788 20.418 74.5148 19.536 74.5148 18.5C74.5148 17.464 74.1788 16.596 73.5068 15.882C72.8488 15.168 72.0368 14.804 71.0988 14.804ZM69.3768 19.928C69.0128 19.55 68.8308 19.074 68.8308 18.5C68.8308 17.926 69.0128 17.45 69.3768 17.086C69.7408 16.708 70.2028 16.526 70.7628 16.526C71.3228 16.526 71.7848 16.708 72.1488 17.086C72.5268 17.45 72.7088 17.926 72.7088 18.5C72.7088 19.074 72.5268 19.55 72.1488 19.928C71.7848 20.292 71.3228 20.474 70.7628 20.474C70.2028 20.474 69.7408 20.292 69.3768 19.928Z" fill="white"/>
<defs>
<linearGradient id="paint0_linear_505_422" x1="49" y1="36" x2="49" y2="4.98703e-08" gradientUnits="userSpaceOnUse">
<stop stop-color="#0D3291"/>
<stop offset="1" stop-color="#103697" stop-opacity="0"/>
</linearGradient>
</defs>
</svg>
