<svg width="20" height="20" viewBox="0 0 20 20" fill="none" xmlns="http://www.w3.org/2000/svg">
<path d="M12.7083 0.25C13.1393 0.25 13.5526 0.421205 13.8574 0.725952C14.1621 1.0307 14.3333 1.44402 14.3333 1.875V7.29167C14.3333 7.72264 14.1621 8.13597 13.8574 8.44072C13.5526 8.74546 13.1393 8.91667 12.7083 8.91667C12.2774 8.91667 11.864 8.74546 11.5593 8.44072C11.2545 8.13597 11.0833 7.72264 11.0833 7.29167V1.875C11.0833 1.44402 11.2545 1.0307 11.5593 0.725952C11.864 0.421205 12.2774 0.25 12.7083 0.25ZM1.875 11.0833H3.5V12.7083C3.5 13.0297 3.4047 13.3439 3.22614 13.6111C3.04758 13.8784 2.79379 14.0866 2.49686 14.2096C2.19993 14.3326 1.8732 14.3648 1.55798 14.3021C1.24276 14.2394 0.953212 14.0846 0.725952 13.8574C0.498692 13.6301 0.343926 13.3406 0.281225 13.0254C0.218524 12.7101 0.250704 12.3834 0.373696 12.0865C0.496689 11.7895 0.704969 11.5358 0.972199 11.3572C1.23943 11.1786 1.55361 11.0833 1.875 11.0833ZM11.0833 16.5H12.7083C13.0297 16.5 13.3439 16.5953 13.6111 16.7739C13.8784 16.9524 14.0866 17.2062 14.2096 17.5031C14.3326 17.8001 14.3648 18.1268 14.3021 18.442C14.2394 18.7572 14.0846 19.0468 13.8574 19.274C13.6301 19.5013 13.3406 19.6561 13.0254 19.7188C12.7101 19.7815 12.3834 19.7493 12.0865 19.6263C11.7895 19.5033 11.5358 19.295 11.3572 19.0278C11.1786 18.7606 11.0833 18.4464 11.0833 18.125V16.5ZM12.7083 11.0833H18.125C18.556 11.0833 18.9693 11.2545 19.274 11.5593C19.5788 11.864 19.75 12.2774 19.75 12.7083C19.75 13.1393 19.5788 13.5526 19.274 13.8574C18.9693 14.1621 18.556 14.3333 18.125 14.3333H12.7083C12.2774 14.3333 11.864 14.1621 11.5593 13.8574C11.2545 13.5526 11.0833 13.1393 11.0833 12.7083C11.0833 12.2774 11.2545 11.864 11.5593 11.5593C11.864 11.2545 12.2774 11.0833 12.7083 11.0833ZM18.125 5.66667C18.556 5.66667 18.9693 5.83787 19.274 6.14262C19.5788 6.44736 19.75 6.86069 19.75 7.29167C19.75 7.72264 19.5788 8.13597 19.274 8.44072C18.9693 8.74546 18.556 8.91667 18.125 8.91667H16.5V7.29167C16.5 6.86069 16.6712 6.44736 16.976 6.14262C17.2807 5.83787 17.694 5.66667 18.125 5.66667ZM1.875 5.66667H7.29167C7.72264 5.66667 8.13597 5.83787 8.44072 6.14262C8.74546 6.44736 8.91667 6.86069 8.91667 7.29167C8.91667 7.72264 8.74546 8.13597 8.44072 8.44072C8.13597 8.74546 7.72264 8.91667 7.29167 8.91667H1.875C1.44402 8.91667 1.0307 8.74546 0.725952 8.44072C0.421206 8.13597 0.250001 7.72264 0.250001 7.29167C0.250001 6.86069 0.421206 6.44736 0.725952 6.14262C1.0307 5.83787 1.44402 5.66667 1.875 5.66667ZM7.29167 0.25C7.72264 0.25 8.13597 0.421205 8.44072 0.725952C8.74546 1.0307 8.91667 1.44402 8.91667 1.875V3.5H7.29167C6.86069 3.5 6.44737 3.3288 6.14262 3.02405C5.83787 2.7193 5.66667 2.30598 5.66667 1.875C5.66667 1.44402 5.83787 1.0307 6.14262 0.725952C6.44737 0.421205 6.86069 0.25 7.29167 0.25ZM7.29167 11.0833C7.72264 11.0833 8.13597 11.2545 8.44072 11.5593C8.74546 11.864 8.91667 12.2774 8.91667 12.7083V18.125C8.91667 18.556 8.74546 18.9693 8.44072 19.274C8.13597 19.5788 7.72264 19.75 7.29167 19.75C6.86069 19.75 6.44737 19.5788 6.14262 19.274C5.83787 18.9693 5.66667 18.556 5.66667 18.125V12.7083C5.66667 12.2774 5.83787 11.864 6.14262 11.5593C6.44737 11.2545 6.86069 11.0833 7.29167 11.0833Z" fill="white"/>
</svg>
