<svg width="124" height="40" viewBox="0 0 124 40" fill="none" xmlns="http://www.w3.org/2000/svg">
<circle cx="20" cy="20" r="19" stroke="#2A84C6" stroke-width="2"/>
<path d="M26.552 18.9231L17.3857 13.504C16.6409 13.064 15.5004 13.491 15.5004 14.5795V25.415C15.5004 26.3915 16.5602 26.9801 17.3857 26.4905L26.552 21.074C27.3697 20.5923 27.3723 19.4048 26.552 18.9231Z" fill="#2A84C6"/>
<path d="M51.8516 26H54.2109V16.6719H57.4766V14.7266H48.5938V16.6719H51.8516V26ZM59.3562 26.1328C60.4578 26.1328 61.3484 25.6094 61.825 24.75H61.8719V26H64.1531V20.2578C64.1531 18.5703 62.7547 17.4531 60.5906 17.4531C58.3797 17.4531 57.0516 18.5625 56.9266 20.1094L56.9187 20.2031H59.0047L59.0203 20.1328C59.1297 19.5938 59.6453 19.1953 60.4969 19.1953C61.3875 19.1953 61.8719 19.6562 61.8719 20.3984V20.9141L59.8016 21.0391C57.7234 21.1719 56.5437 22.0625 56.5437 23.5859V23.6016C56.5437 25.0781 57.6766 26.1328 59.3562 26.1328ZM58.8016 23.4844V23.4688C58.8016 22.875 59.2625 22.5 60.1453 22.4453L61.8719 22.3359V22.9375C61.8719 23.8125 61.1219 24.4688 60.0984 24.4688C59.3094 24.4688 58.8016 24.1016 58.8016 23.4844ZM65.9078 26H68.1891V23.2266L68.775 22.5781L71.1734 26H73.8062L70.4859 21.2266L73.65 17.625H71.0641L68.2359 20.9766H68.1891V14.7266H65.9078V26ZM78.0609 26.1719C80.4516 26.1719 81.6078 24.7578 81.8656 23.5234L81.8891 23.4375H79.7953L79.7797 23.4844C79.6156 23.9531 79.0453 24.4688 78.1078 24.4688C76.9438 24.4688 76.2172 23.6875 76.1938 22.3516H81.9594V21.6484C81.9594 19.1172 80.4203 17.4531 77.9672 17.4531C75.5141 17.4531 73.9438 19.1562 73.9438 21.8203V21.8281C73.9438 24.5078 75.4984 26.1719 78.0609 26.1719ZM78.0063 19.1562C78.9516 19.1562 79.6313 19.7578 79.7719 20.9141H76.2172C76.3656 19.7812 77.0688 19.1562 78.0063 19.1562ZM89.2031 26.1328C90.3047 26.1328 91.1953 25.6094 91.6719 24.75H91.7188V26H94V20.2578C94 18.5703 92.6016 17.4531 90.4375 17.4531C88.2266 17.4531 86.8984 18.5625 86.7734 20.1094L86.7656 20.2031H88.8516L88.8672 20.1328C88.9766 19.5938 89.4922 19.1953 90.3438 19.1953C91.2344 19.1953 91.7188 19.6562 91.7188 20.3984V20.9141L89.6484 21.0391C87.5703 21.1719 86.3906 22.0625 86.3906 23.5859V23.6016C86.3906 25.0781 87.5234 26.1328 89.2031 26.1328ZM88.6484 23.4844V23.4688C88.6484 22.875 89.1094 22.5 89.9922 22.4453L91.7188 22.3359V22.9375C91.7188 23.8125 90.9688 24.4688 89.9453 24.4688C89.1562 24.4688 88.6484 24.1016 88.6484 23.4844ZM102.377 26.1719C102.853 26.1719 103.22 26.125 103.478 26.0859V24.4141C103.338 24.4297 103.189 24.4531 102.986 24.4531C102.298 24.4531 101.947 24.1875 101.947 23.4062V19.3438H103.478V17.625H101.947V15.5781H99.6422V17.625H98.4781V19.3438H99.6422V23.6562C99.6422 25.4531 100.517 26.1719 102.377 26.1719ZM104.936 26H107.217V21.3125C107.217 20.0938 107.873 19.4219 108.998 19.4219C109.327 19.4219 109.639 19.4688 109.827 19.5469V17.5391C109.655 17.4922 109.42 17.4531 109.17 17.4531C108.194 17.4531 107.514 18.0547 107.264 19.0859H107.217V17.625H104.936V26ZM112.152 16.5469C112.839 16.5469 113.37 16.0078 113.37 15.3594C113.37 14.7109 112.839 14.1719 112.152 14.1719C111.464 14.1719 110.933 14.7109 110.933 15.3594C110.933 16.0078 111.464 16.5469 112.152 16.5469ZM111.011 26H113.292V17.625H111.011V26ZM115.023 28.7344H117.305V24.5703H117.352C117.805 25.5625 118.75 26.1719 119.945 26.1719C122.039 26.1719 123.336 24.5312 123.336 21.8125V21.8047C123.336 19.0781 122.039 17.4531 119.914 17.4531C118.727 17.4531 117.812 18.0703 117.359 19.0859H117.305V17.625H115.023V28.7344ZM119.164 24.2812C118.055 24.2812 117.297 23.3281 117.297 21.8203V21.8125C117.297 20.2969 118.055 19.3438 119.164 19.3438C120.297 19.3438 121.016 20.2734 121.016 21.8047V21.8125C121.016 23.3359 120.297 24.2812 119.164 24.2812Z" fill="#2A84C6"/>
</svg>
