<svg width="14" height="10" viewBox="0 0 14 10" fill="none" xmlns="http://www.w3.org/2000/svg">
<path d="M6.29565 9.01167L0.627216 3.34323C0.235427 2.95144 0.235427 2.31791 0.627216 1.93029L1.56918 0.98833C1.96097 0.596541 2.5945 0.596541 2.98212 0.98833L7.00004 5.00625L11.018 0.98833C11.4098 0.596541 12.0433 0.596541 12.4309 0.98833L13.3729 1.93029C13.7647 2.32208 13.7647 2.95561 13.3729 3.34323L7.70443 9.01167C7.32098 9.40346 6.68744 9.40346 6.29565 9.01167V9.01167Z" fill="#1443BD"/>
<path d="M6.29565 9.01167L0.627216 3.34323C0.235427 2.95144 0.235427 2.31791 0.627216 1.93029L1.56918 0.98833C1.96097 0.596541 2.5945 0.596541 2.98212 0.98833L7.00004 5.00625L11.018 0.98833C11.4098 0.596541 12.0433 0.596541 12.4309 0.98833L13.3729 1.93029C13.7647 2.32208 13.7647 2.95561 13.3729 3.34323L7.70443 9.01167C7.32098 9.40346 6.68744 9.40346 6.29565 9.01167V9.01167Z" fill="black" fill-opacity="0.5"/>
</svg>
