<svg width="181" height="56" viewBox="0 0 181 56" fill="none" xmlns="http://www.w3.org/2000/svg">
<path d="M0 14.4C0 8.40043 0 5.40064 1.52786 3.29772C2.0213 2.61856 2.61856 2.0213 3.29772 1.52786C5.40064 0 8.40043 0 14.4 0H166.6C172.6 0 175.599 0 177.702 1.52786C178.381 2.0213 178.979 2.61856 179.472 3.29772C181 5.40064 181 8.40043 181 14.4V41.6C181 47.5996 181 50.5994 179.472 52.7023C178.979 53.3814 178.381 53.9787 177.702 54.4721C175.599 56 172.6 56 166.6 56H14.4C8.40042 56 5.40064 56 3.29772 54.4721C2.61856 53.9787 2.0213 53.3814 1.52786 52.7023C0 50.5994 0 47.5996 0 41.6V14.4Z" fill="#1443BD"/>
<path d="M0 14.4C0 8.40043 0 5.40064 1.52786 3.29772C2.0213 2.61856 2.61856 2.0213 3.29772 1.52786C5.40064 0 8.40043 0 14.4 0H166.6C172.6 0 175.599 0 177.702 1.52786C178.381 2.0213 178.979 2.61856 179.472 3.29772C181 5.40064 181 8.40043 181 14.4V41.6C181 47.5996 181 50.5994 179.472 52.7023C178.979 53.3814 178.381 53.9787 177.702 54.4721C175.599 56 172.6 56 166.6 56H14.4C8.40042 56 5.40064 56 3.29772 54.4721C2.61856 53.9787 2.0213 53.3814 1.52786 52.7023C0 50.5994 0 47.5996 0 41.6V14.4Z" fill="url(#paint0_linear_516_444)" fill-opacity="0.2"/>
<path d="M31.5648 35.2441C35.4906 35.2441 37.8148 32.9199 37.8148 29.082V27.4609H31.7211V29.6582H34.9437L34.934 29.8633C34.8559 31.6016 33.5375 32.7441 31.6137 32.7441C29.2699 32.7441 27.7855 30.9375 27.7855 27.8809V27.8711C27.7855 24.8828 29.182 23.1641 31.5062 23.1641C33.098 23.1641 34.2211 23.9551 34.6898 25.3223L34.7289 25.4199H37.6879L37.6586 25.2832C37.1898 22.6367 34.8852 20.6641 31.4965 20.6641C27.3656 20.6641 24.7777 23.3887 24.7777 27.9004V27.9102C24.7777 32.5 27.3559 35.2441 31.5648 35.2441ZM44.3195 35.2148C47.3077 35.2148 48.753 33.4473 49.0753 31.9043L49.1046 31.7969H46.4874L46.4679 31.8555C46.2628 32.4414 45.5499 33.0859 44.378 33.0859C42.923 33.0859 42.0148 32.1094 41.9855 30.4395H49.1925V29.5605C49.1925 26.3965 47.2687 24.3164 44.2023 24.3164C41.1359 24.3164 39.173 26.4453 39.173 29.7754V29.7852C39.173 33.1348 41.1163 35.2148 44.3195 35.2148ZM44.2511 26.4453C45.4327 26.4453 46.2823 27.1973 46.4581 28.6426H42.0148C42.2003 27.2266 43.0792 26.4453 44.2511 26.4453ZM54.8573 35.2148C55.453 35.2148 55.912 35.1562 56.2342 35.1074V33.0176C56.0584 33.0371 55.8729 33.0664 55.619 33.0664C54.7596 33.0664 54.3202 32.7344 54.3202 31.7578V26.6797H56.2342V24.5312H54.3202V21.9727H51.4393V24.5312H49.9842V26.6797H51.4393V32.0703C51.4393 34.3164 52.533 35.2148 54.8573 35.2148ZM67.222 35.2441C70.7766 35.2441 72.9055 33.5254 72.9055 30.8203V30.8105C72.9055 28.5938 71.5774 27.3926 68.6282 26.8066L67.1341 26.5039C65.513 26.1816 64.7903 25.6641 64.7903 24.7754V24.7656C64.7903 23.7598 65.6985 23.0664 67.2122 23.0566C68.6673 23.0566 69.6829 23.7305 69.8294 24.834L69.8391 24.9512H72.6223L72.6126 24.7656C72.4759 22.2949 70.4739 20.6641 67.2122 20.6641C64.0872 20.6641 61.8411 22.3633 61.8411 24.9414V24.9512C61.8411 27.0703 63.2473 28.3984 66.0305 28.9551L67.5149 29.248C69.263 29.6094 69.9563 30.0879 69.9563 31.0449V31.0547C69.9563 32.1289 68.9309 32.8418 67.3001 32.8418C65.6887 32.8418 64.5266 32.1582 64.3411 31.0645L64.3216 30.957H61.5384L61.5481 31.1133C61.7141 33.7109 63.8723 35.2441 67.222 35.2441ZM78.6582 35.2148C79.2539 35.2148 79.7129 35.1562 80.0352 35.1074V33.0176C79.8594 33.0371 79.6738 33.0664 79.4199 33.0664C78.5605 33.0664 78.1211 32.7344 78.1211 31.7578V26.6797H80.0352V24.5312H78.1211V21.9727H75.2402V24.5312H73.7852V26.6797H75.2402V32.0703C75.2402 34.3164 76.334 35.2148 78.6582 35.2148ZM84.655 35.166C86.032 35.166 87.1452 34.5117 87.7409 33.4375H87.7995V35H90.6511V27.8223C90.6511 25.7129 88.903 24.3164 86.198 24.3164C83.4343 24.3164 81.7741 25.7031 81.6179 27.6367L81.6081 27.7539H84.2155L84.2351 27.666C84.3718 26.9922 85.0163 26.4941 86.0808 26.4941C87.1941 26.4941 87.7995 27.0703 87.7995 27.998V28.6426L85.2116 28.7988C82.614 28.9648 81.1394 30.0781 81.1394 31.9824V32.002C81.1394 33.8477 82.5554 35.166 84.655 35.166ZM83.9616 31.8555V31.8359C83.9616 31.0938 84.5378 30.625 85.6413 30.5566L87.7995 30.4199V31.1719C87.7995 32.2656 86.862 33.0859 85.5827 33.0859C84.5964 33.0859 83.9616 32.627 83.9616 31.8555ZM92.5268 35H95.3784V29.1406C95.3784 27.6172 96.1987 26.7773 97.6049 26.7773C98.0151 26.7773 98.4057 26.8359 98.6401 26.9336V24.4238C98.4252 24.3652 98.1323 24.3164 97.8198 24.3164C96.5991 24.3164 95.7495 25.0684 95.437 26.3574H95.3784V24.5312H92.5268V35ZM104.002 35.2148C104.598 35.2148 105.057 35.1562 105.379 35.1074V33.0176C105.203 33.0371 105.018 33.0664 104.764 33.0664C103.904 33.0664 103.465 32.7344 103.465 31.7578V26.6797H105.379V24.5312H103.465V21.9727H100.584V24.5312H99.1291V26.6797H100.584V32.0703C100.584 34.3164 101.678 35.2148 104.002 35.2148ZM111.591 35.2148C114.579 35.2148 116.024 33.4473 116.347 31.9043L116.376 31.7969H113.759L113.739 31.8555C113.534 32.4414 112.821 33.0859 111.649 33.0859C110.194 33.0859 109.286 32.1094 109.257 30.4395H116.464V29.5605C116.464 26.3965 114.54 24.3164 111.474 24.3164C108.407 24.3164 106.444 26.4453 106.444 29.7754V29.7852C106.444 33.1348 108.388 35.2148 111.591 35.2148ZM111.522 26.4453C112.704 26.4453 113.554 27.1973 113.729 28.6426H109.286C109.472 27.2266 110.35 26.4453 111.522 26.4453ZM121.845 35.2148C123.359 35.2148 124.511 34.4531 125.068 33.2129H125.127V35H127.978V20.9082H125.127V26.3477H125.068C124.502 25.0781 123.33 24.3164 121.845 24.3164C119.209 24.3164 117.588 26.3477 117.588 29.7559V29.7656C117.588 33.1641 119.209 35.2148 121.845 35.2148ZM122.802 32.8516C121.377 32.8516 120.488 31.6699 120.488 29.7656V29.7559C120.488 27.8418 121.386 26.6797 122.802 26.6797C124.179 26.6797 125.136 27.8711 125.136 29.7559V29.7656C125.136 31.6602 124.189 32.8516 122.802 32.8516Z" fill="white"/>
<path d="M151.789 28.6477L144.372 36.0651C144.014 36.4228 143.434 36.4228 143.076 36.0651L142.211 35.1999C141.854 34.8428 141.853 34.264 142.21 33.9061L148.088 28L142.21 22.094C141.853 21.736 141.854 21.1572 142.211 20.8001L143.076 19.935C143.434 19.5773 144.014 19.5773 144.372 19.935L151.789 27.3523C152.147 27.71 152.147 28.29 151.789 28.6477Z" fill="white"/>
<defs>
<linearGradient id="paint0_linear_516_444" x1="89.5859" y1="56" x2="89.5859" y2="7.75759e-08" gradientUnits="userSpaceOnUse">
<stop stop-color="#0D3291"/>
<stop offset="1" stop-color="#103697" stop-opacity="0"/>
</linearGradient>
</defs>
</svg>
