<svg width="93" height="36" viewBox="0 0 93 36" fill="none" xmlns="http://www.w3.org/2000/svg">
<path d="M28.3355 22.196C29.3855 22.196 30.2395 21.93 30.8975 21.398C31.5555 20.866 31.8915 20.152 31.8915 19.242C31.8915 18.682 31.7375 18.192 31.5275 17.856C31.3455 17.52 30.8975 17.17 30.6035 16.988C30.4635 16.89 30.2535 16.792 29.9875 16.694C29.7215 16.582 29.5115 16.498 29.3575 16.456L28.6855 16.232C27.9575 16.008 27.4675 15.798 27.2015 15.616C26.9495 15.42 26.8235 15.168 26.8235 14.86C26.8235 14.286 27.3135 13.88 28.1115 13.88C28.9655 13.88 29.5955 14.3 29.9875 15.14L31.6115 14.202C30.9395 12.816 29.6935 12.004 28.1115 12.004C27.2295 12.004 26.4595 12.27 25.8295 12.802C25.1995 13.32 24.8915 14.034 24.8915 14.916C24.8915 15.812 25.2135 16.484 25.8155 16.932C26.4315 17.366 26.9635 17.576 27.8455 17.842C28.6435 18.066 29.1895 18.276 29.4975 18.472C29.8055 18.654 29.9595 18.92 29.9595 19.27C29.9595 19.872 29.4695 20.306 28.3915 20.306C27.2715 20.306 26.5155 19.802 26.1375 18.808L24.4855 19.774C25.0315 21.272 26.3895 22.196 28.3355 22.196ZM34.1386 14.384C34.7546 14.384 35.2586 13.894 35.2586 13.306C35.2586 12.718 34.7546 12.214 34.1386 12.214C33.5366 12.214 33.0326 12.718 33.0326 13.306C33.0326 13.894 33.5366 14.384 34.1386 14.384ZM35.0486 22V15H33.2426V22H35.0486ZM42.2386 15.868C41.7066 15.154 40.9646 14.804 39.9986 14.804C39.0186 14.804 38.1926 15.154 37.5206 15.854C36.8486 16.554 36.5126 17.394 36.5126 18.388C36.5126 19.382 36.8486 20.236 37.5066 20.936C38.1786 21.622 39.0046 21.972 39.9986 21.972C40.9646 21.972 41.7066 21.622 42.2386 20.908V21.664C42.2386 22.77 41.5386 23.386 40.4046 23.386C39.5366 23.386 38.9206 23.064 38.5706 22.406L37.0306 23.288C37.6466 24.408 38.8366 24.996 40.3486 24.996C41.3566 24.996 42.2106 24.716 42.9246 24.142C43.6386 23.568 44.0026 22.742 44.0026 21.664V15H42.2386V15.868ZM42.2386 18.388C42.2386 19.508 41.4126 20.306 40.2786 20.306C39.1446 20.306 38.3186 19.508 38.3186 18.388C38.3186 17.842 38.5006 17.38 38.8646 17.03C39.2426 16.666 39.7046 16.484 40.2786 16.484C40.8526 16.484 41.3146 16.666 41.6786 17.03C42.0566 17.38 42.2386 17.842 42.2386 18.388ZM49.7073 14.804C48.7553 14.804 48.0553 15.126 47.6213 15.784V15H45.8153V22H47.6213V18.22C47.6213 17.058 48.2233 16.484 49.1613 16.484C50.0013 16.484 50.5473 16.988 50.5473 17.926V22H52.3533V17.702C52.3533 16.792 52.1013 16.092 51.5973 15.574C51.1073 15.056 50.4773 14.804 49.7073 14.804ZM57.8293 22H59.7613V12.2H57.8293V22ZM65.5584 14.804C64.6064 14.804 63.9064 15.126 63.4724 15.784V15H61.6664V22H63.4724V18.22C63.4724 17.058 64.0744 16.484 65.0124 16.484C65.8524 16.484 66.3984 16.988 66.3984 17.926V22H68.2044V17.702C68.2044 16.792 67.9524 16.092 67.4484 15.574C66.9584 15.056 66.3284 14.804 65.5584 14.804Z" fill="#2A84C6"/>
</svg>
